<svg width="12" height="13" viewBox="0 0 12 13" fill="none" xmlns="http://www.w3.org/2000/svg">
<path d="M6.00008 13.0001C4.5223 13.0001 3.26386 12.4863 2.22475 11.4587C1.18564 10.4312 0.666304 9.1894 0.666748 7.7334C0.666748 7.00007 0.805637 6.32229 1.08341 5.70007C1.36119 5.07784 1.74453 4.52229 2.23341 4.0334L5.30008 1.01673C5.40008 0.927843 5.51119 0.85851 5.63341 0.808732C5.75564 0.758954 5.87786 0.733843 6.00008 0.733398C6.1223 0.733398 6.24453 0.75851 6.36675 0.808732C6.48897 0.858954 6.60008 0.928287 6.70008 1.01673L9.76675 4.0334C10.2556 4.52229 10.639 5.07784 10.9167 5.70007C11.1945 6.32229 11.3334 7.00007 11.3334 7.7334C11.3334 9.18895 10.8141 10.4307 9.77541 11.4587C8.73675 12.4867 7.4783 13.0005 6.00008 13.0001ZM6.00008 11.6667V2.20007L3.16675 5.00007C2.77786 5.36673 2.4863 5.78073 2.29208 6.24207C2.09786 6.7034 2.00053 7.20051 2.00008 7.7334C2.00008 8.81118 2.38897 9.73629 3.16675 10.5087C3.94453 11.2812 4.88897 11.6672 6.00008 11.6667Z" fill="#373D55"/>
</svg>
