<svg width="24" height="25" viewBox="0 0 24 25" fill="none" xmlns="http://www.w3.org/2000/svg">
<mask id="mask0_2394_59" style="mask-type:alpha" maskUnits="userSpaceOnUse" x="0" y="0" width="24" height="25">
<path d="M13.5 2C13.5 1.17157 12.8284 0.5 12 0.5C11.1716 0.5 10.5 1.17157 10.5 2H13.5ZM10.9393 24.0607C11.5251 24.6464 12.4749 24.6464 13.0607 24.0607L22.6066 14.5147C23.1924 13.9289 23.1924 12.9792 22.6066 12.3934C22.0208 11.8076 21.0711 11.8076 20.4853 12.3934L12 20.8787L3.51472 12.3934C2.92893 11.8076 1.97918 11.8076 1.3934 12.3934C0.807612 12.9792 0.807612 13.9289 1.3934 14.5147L10.9393 24.0607ZM10.5 2V23H13.5V2H10.5Z" fill="#2D3142"/>
</mask>
<g mask="url(#mask0_2394_59)">
<rect x="-1" width="25" height="25" fill="#2D3142"/>
</g>
</svg>
