<svg width="12" height="17" viewBox="0 0 12 17" fill="none" xmlns="http://www.w3.org/2000/svg">
<path d="M5 15H4C3.71667 15 3.47933 14.904 3.288 14.712C3.09667 14.52 3.00067 14.2827 3 14C3 13.7167 3.096 13.4793 3.288 13.288C3.48 13.0967 3.71733 13.0007 4 13H5V10.9C3.68333 10.6667 2.604 10.0373 1.762 9.012C0.920001 7.98667 0.499334 6.79933 0.500001 5.45C0.500001 3.93333 1.03767 2.646 2.113 1.588C3.18833 0.53 4.484 0.000666667 6 0C7.51667 0 8.81267 0.529333 9.888 1.588C10.9633 2.64667 11.5007 3.934 11.5 5.45C11.5 6.8 11.079 7.98767 10.237 9.013C9.395 10.0383 8.316 10.6673 7 10.9V13H8C8.28333 13 8.521 13.096 8.713 13.288C8.905 13.48 9.00067 13.7173 9 14C9 14.2833 8.904 14.521 8.712 14.713C8.52 14.905 8.28267 15.0007 8 15H7V16C7 16.2833 6.904 16.521 6.712 16.713C6.52 16.905 6.28267 17.0007 6 17C5.71667 17 5.47933 16.904 5.288 16.712C5.09667 16.52 5.00067 16.2827 5 16V15ZM6 9C6.96667 9 7.79167 8.65833 8.475 7.975C9.15833 7.29167 9.5 6.46667 9.5 5.5C9.5 4.53333 9.15833 3.70833 8.475 3.025C7.79167 2.34167 6.96667 2 6 2C5.03333 2 4.20833 2.34167 3.525 3.025C2.84167 3.70833 2.5 4.53333 2.5 5.5C2.5 6.46667 2.84167 7.29167 3.525 7.975C4.20833 8.65833 5.03333 9 6 9Z" fill="#212330"/>
</svg>
