<svg width="12" height="12" viewBox="0 0 12 12" fill="none" xmlns="http://www.w3.org/2000/svg">
<path d="M11.3334 1.33341V4.00008C11.3334 4.18897 11.2694 4.34741 11.1414 4.47541C11.0134 4.60341 10.8552 4.66719 10.6667 4.66675C10.4779 4.66675 10.3196 4.60275 10.1921 4.47475C10.0645 4.34675 10.0005 4.18853 10.0001 4.00008V2.95008L7.35008 5.58341C7.56119 5.89453 7.7223 6.22519 7.83342 6.57541C7.94453 6.92564 8.00008 7.28941 8.00008 7.66675C8.00008 8.68897 7.64453 9.55564 6.93341 10.2667C6.2223 10.9779 5.35564 11.3334 4.33341 11.3334C3.31119 11.3334 2.44453 10.9779 1.73341 10.2667C1.0223 9.55564 0.666748 8.68897 0.666748 7.66675C0.666748 6.64453 1.0223 5.77786 1.73341 5.06675C2.44453 4.35564 3.31119 4.00008 4.33341 4.00008C4.70008 4.00008 5.06119 4.05275 5.41675 4.15808C5.7723 4.26341 6.10008 4.42741 6.40008 4.65008L9.05008 2.00008H8.00008C7.81119 2.00008 7.65297 1.93608 7.52541 1.80808C7.39786 1.68008 7.33386 1.52186 7.33342 1.33341C7.33342 1.14453 7.39742 0.986304 7.52541 0.858748C7.65342 0.731193 7.81164 0.667192 8.00008 0.666748H10.6667C10.8556 0.666748 11.0141 0.730748 11.1421 0.858748C11.2701 0.986748 11.3339 1.14497 11.3334 1.33341ZM4.33341 5.33341C3.68897 5.33341 3.13897 5.56119 2.68341 6.01675C2.22786 6.4723 2.00008 7.0223 2.00008 7.66675C2.00008 8.31119 2.22786 8.86119 2.68341 9.31675C3.13897 9.7723 3.68897 10.0001 4.33341 10.0001C4.97786 10.0001 5.52786 9.7723 5.98342 9.31675C6.43897 8.86119 6.66675 8.31119 6.66675 7.66675C6.66675 7.0223 6.43897 6.4723 5.98342 6.01675C5.52786 5.56119 4.97786 5.33341 4.33341 5.33341Z" fill="#373D55"/>
</svg>
