<svg width="17" height="14" viewBox="0 0 13 10" fill="none" xmlns="http://www.w3.org/2000/svg">
<path fill-rule="evenodd" clip-rule="evenodd" d="M0.5 1C0.5 0.447715 0.947715 0 1.5 0H11.5C12.0523 0 12.5 0.447715 12.5 1C12.5 1.55228 12.0523 2 11.5 2H1.5C0.947715 2 0.5 1.55228 0.5 1ZM0.5 5C0.5 4.44772 0.947715 4 1.5 4H11.5C12.0523 4 12.5 4.44772 12.5 5C12.5 5.55228 12.0523 6 11.5 6H1.5C0.947715 6 0.5 5.55228 0.5 5ZM1.5 8C0.947715 8 0.5 8.44771 0.5 9C0.5 9.55229 0.947715 10 1.5 10H11.5C12.0523 10 12.5 9.55229 12.5 9C12.5 8.44771 12.0523 8 11.5 8H1.5Z" fill="#D4D7E3"/>
</svg>
