<svg width="20" height="14" viewBox="0 0 20 14" fill="none" xmlns="http://www.w3.org/2000/svg">
<path d="M10.525 13.0251C10.1917 13.2418 9.85433 13.2544 9.513 13.0631C9.17167 12.8718 9.00067 12.5758 9 12.1751V8.00009H1C0.716667 8.00009 0.479333 7.90409 0.288 7.71209C0.0966668 7.52009 0.000666667 7.28276 0 7.00009C0 6.71676 0.0960001 6.47942 0.288 6.28809C0.48 6.09676 0.717333 6.00076 1 6.00009H9V1.82509C9 1.42509 9.171 1.12909 9.513 0.93709C9.855 0.74509 10.1923 0.757757 10.525 0.97509L18.675 6.15009C18.9917 6.35009 19.15 6.63342 19.15 7.00009C19.15 7.36676 18.9917 7.65009 18.675 7.85009L10.525 13.0251Z" fill="#D4D7E3"/>
</svg>
